<svg width="392" height="36" viewBox="0 0 392 36" fill="none" xmlns="http://www.w3.org/2000/svg">
<path d="M0.643378 35V1.4H15.1874C18.1954 1.4 20.7874 1.896 22.9634 2.888C25.1394 3.848 26.8194 5.24 28.0034 7.064C29.1874 8.888 29.7794 11.064 29.7794 13.592C29.7794 16.088 29.1874 18.248 28.0034 20.072C26.8194 21.896 25.1394 23.304 22.9634 24.296C20.7874 25.256 18.1954 25.736 15.1874 25.736H4.96338L8.41938 22.232V35H0.643378ZM8.41938 23.096L4.96338 19.4H14.7554C17.1554 19.4 18.9474 18.888 20.1314 17.864C21.3154 16.84 21.9074 15.416 21.9074 13.592C21.9074 11.736 21.3154 10.296 20.1314 9.272C18.9474 8.248 17.1554 7.736 14.7554 7.736H4.96338L8.41938 4.04V23.096ZM62.9196 35.576C60.2636 35.576 57.7996 35.144 55.5276 34.28C53.2876 33.416 51.3356 32.2 49.6716 30.632C48.0396 29.064 46.7596 27.224 45.8316 25.112C44.9356 23 44.4876 20.696 44.4876 18.2C44.4876 15.704 44.9356 13.4 45.8316 11.288C46.7596 9.176 48.0556 7.336 49.7196 5.768C51.3836 4.2 53.3356 2.984 55.5756 2.12C57.8156 1.256 60.2476 0.823999 62.8716 0.823999C65.5276 0.823999 67.9596 1.256 70.1676 2.12C72.4076 2.984 74.3436 4.2 75.9756 5.768C77.6396 7.336 78.9356 9.176 79.8636 11.288C80.7916 13.368 81.2556 15.672 81.2556 18.2C81.2556 20.696 80.7916 23.016 79.8636 25.16C78.9356 27.272 77.6396 29.112 75.9756 30.68C74.3436 32.216 72.4076 33.416 70.1676 34.28C67.9596 35.144 65.5436 35.576 62.9196 35.576ZM62.8716 28.952C64.3756 28.952 65.7516 28.696 66.9996 28.184C68.2796 27.672 69.3996 26.936 70.3596 25.976C71.3196 25.016 72.0556 23.88 72.5676 22.568C73.1116 21.256 73.3836 19.8 73.3836 18.2C73.3836 16.6 73.1116 15.144 72.5676 13.832C72.0556 12.52 71.3196 11.384 70.3596 10.424C69.4316 9.464 68.3276 8.728 67.0476 8.216C65.7676 7.704 64.3756 7.448 62.8716 7.448C61.3676 7.448 59.9756 7.704 58.6956 8.216C57.4476 8.728 56.3436 9.464 55.3836 10.424C54.4236 11.384 53.6716 12.52 53.1276 13.832C52.6156 15.144 52.3596 16.6 52.3596 18.2C52.3596 19.768 52.6156 21.224 53.1276 22.568C53.6716 23.88 54.4076 25.016 55.3356 25.976C56.2956 26.936 57.4156 27.672 58.6956 28.184C59.9756 28.696 61.3676 28.952 62.8716 28.952ZM97.8996 35V1.4H112.444C115.452 1.4 118.044 1.896 120.22 2.888C122.396 3.848 124.076 5.24 125.26 7.064C126.444 8.888 127.036 11.064 127.036 13.592C127.036 16.088 126.444 18.248 125.26 20.072C124.076 21.896 122.396 23.304 120.22 24.296C118.044 25.256 115.452 25.736 112.444 25.736H102.22L105.676 22.232V35H97.8996ZM105.676 23.096L102.22 19.4H112.012C114.412 19.4 116.204 18.888 117.388 17.864C118.572 16.84 119.164 15.416 119.164 13.592C119.164 11.736 118.572 10.296 117.388 9.272C116.204 8.248 114.412 7.736 112.012 7.736H102.22L105.676 4.04V23.096ZM143.387 35V1.4H149.819L164.123 25.112H160.715L174.779 1.4H181.163L181.259 35H173.963L173.915 12.584H175.259L164.027 31.448H160.523L149.051 12.584H150.683V35H143.387ZM216.351 35.576C213.695 35.576 211.231 35.144 208.959 34.28C206.719 33.416 204.767 32.2 203.103 30.632C201.471 29.064 200.191 27.224 199.263 25.112C198.367 23 197.919 20.696 197.919 18.2C197.919 15.704 198.367 13.4 199.263 11.288C200.191 9.176 201.487 7.336 203.151 5.768C204.815 4.2 206.767 2.984 209.007 2.12C211.247 1.256 213.679 0.823999 216.303 0.823999C218.959 0.823999 221.391 1.256 223.599 2.12C225.839 2.984 227.775 4.2 229.407 5.768C231.071 7.336 232.367 9.176 233.295 11.288C234.223 13.368 234.687 15.672 234.687 18.2C234.687 20.696 234.223 23.016 233.295 25.16C232.367 27.272 231.071 29.112 229.407 30.68C227.775 32.216 225.839 33.416 223.599 34.28C221.391 35.144 218.975 35.576 216.351 35.576ZM216.303 28.952C217.807 28.952 219.183 28.696 220.431 28.184C221.711 27.672 222.831 26.936 223.791 25.976C224.751 25.016 225.487 23.88 225.999 22.568C226.543 21.256 226.815 19.8 226.815 18.2C226.815 16.6 226.543 15.144 225.999 13.832C225.487 12.52 224.751 11.384 223.791 10.424C222.863 9.464 221.759 8.728 220.479 8.216C219.199 7.704 217.807 7.448 216.303 7.448C214.799 7.448 213.407 7.704 212.127 8.216C210.879 8.728 209.775 9.464 208.815 10.424C207.855 11.384 207.103 12.52 206.559 13.832C206.047 15.144 205.791 16.6 205.791 18.2C205.791 19.768 206.047 21.224 206.559 22.568C207.103 23.88 207.839 25.016 208.767 25.976C209.727 26.936 210.847 27.672 212.127 28.184C213.407 28.696 214.799 28.952 216.303 28.952ZM260.333 35L245.837 1.4H254.237L266.909 31.16H261.965L274.829 1.4H282.557L268.013 35H260.333ZM296.162 35V1.4H303.938V35H296.162ZM329.864 14.936H346.04V20.984H329.864V14.936ZM330.44 28.76H348.728V35H322.712V1.4H348.104V7.64H330.44V28.76ZM376.755 35.576C374.067 35.576 371.491 35.224 369.027 34.52C366.563 33.784 364.579 32.84 363.075 31.688L365.715 25.832C367.155 26.856 368.851 27.704 370.803 28.376C372.787 29.016 374.787 29.336 376.803 29.336C378.339 29.336 379.571 29.192 380.499 28.904C381.459 28.584 382.163 28.152 382.611 27.608C383.059 27.064 383.283 26.44 383.283 25.736C383.283 24.84 382.931 24.136 382.227 23.624C381.523 23.08 380.595 22.648 379.443 22.328C378.291 21.976 377.011 21.656 375.603 21.368C374.227 21.048 372.835 20.664 371.427 20.216C370.051 19.768 368.787 19.192 367.635 18.488C366.483 17.784 365.539 16.856 364.803 15.704C364.099 14.552 363.747 13.08 363.747 11.288C363.747 9.368 364.259 7.624 365.283 6.056C366.339 4.456 367.907 3.192 369.987 2.264C372.099 1.304 374.739 0.823999 377.907 0.823999C380.019 0.823999 382.099 1.08 384.147 1.592C386.195 2.072 388.003 2.808 389.571 3.8L387.171 9.704C385.603 8.808 384.035 8.152 382.467 7.736C380.899 7.288 379.363 7.064 377.859 7.064C376.355 7.064 375.123 7.24 374.163 7.592C373.203 7.944 372.515 8.408 372.099 8.984C371.683 9.528 371.475 10.168 371.475 10.904C371.475 11.768 371.827 12.472 372.531 13.016C373.235 13.528 374.163 13.944 375.315 14.264C376.467 14.584 377.731 14.904 379.107 15.224C380.515 15.544 381.907 15.912 383.283 16.328C384.691 16.744 385.971 17.304 387.123 18.008C388.275 18.712 389.203 19.64 389.907 20.792C390.643 21.944 391.011 23.4 391.011 25.16C391.011 27.048 390.483 28.776 389.427 30.344C388.371 31.912 386.787 33.176 384.675 34.136C382.595 35.096 379.955 35.576 376.755 35.576Z" fill="white"/>
</svg>
