<svg width="3169" height="291" viewBox="0 0 3169 291" fill="none" xmlns="http://www.w3.org/2000/svg">
<path fill-rule="evenodd" clip-rule="evenodd" d="M1734.22 287C1718.32 285.749 1703.34 282.448 1689.26 277.097C1671.15 270.113 1655.37 260.283 1641.92 247.609C1628.73 234.934 1618.38 220.061 1610.88 202.989C1603.64 185.917 1600.01 167.293 1600.01 147.117C1600.01 126.941 1603.64 108.317 1610.88 91.2447C1618.38 74.1727 1628.86 59.2993 1642.31 46.6247C1655.76 33.95 1671.54 24.1207 1689.65 17.1367C1704.5 11.4096 1720.39 8.03074 1737.33 7H1600V287H1734.22ZM1763.62 287H1897V156.093C1896.04 172.882 1892.38 188.644 1886 203.377C1878.5 220.449 1868.02 235.322 1854.57 247.997C1841.38 260.413 1825.72 270.113 1807.62 277.097C1793.94 282.448 1779.28 285.749 1763.62 287ZM1897 138.05V7H1760.05C1777.12 8.03074 1792.98 11.4096 1807.62 17.1367C1825.72 24.1207 1841.38 33.95 1854.57 46.6247C1868.02 59.2993 1878.5 74.1727 1886 91.2447C1892.38 105.538 1896.04 121.14 1897 138.05ZM1782 227.821C1771.92 231.959 1760.79 234.029 1748.63 234.029C1736.47 234.029 1725.22 231.959 1714.87 227.821C1704.53 223.682 1695.47 217.733 1687.71 209.973C1680.21 202.213 1674.26 193.03 1669.86 182.425C1665.72 171.561 1663.65 159.791 1663.65 147.117C1663.65 134.183 1665.72 122.414 1669.86 111.809C1674.26 101.203 1680.34 92.0207 1688.1 84.2607C1695.86 76.5007 1704.78 70.5513 1714.87 66.4127C1725.22 62.274 1736.47 60.2047 1748.63 60.2047C1760.79 60.2047 1772.05 62.274 1782.39 66.4127C1792.74 70.5513 1801.67 76.5007 1809.17 84.2607C1816.93 92.0207 1822.88 101.203 1827.02 111.809C1831.42 122.414 1833.61 134.183 1833.61 147.117C1833.61 160.05 1831.42 171.819 1827.02 182.425C1822.88 193.03 1816.93 202.213 1809.17 209.973C1801.41 217.733 1792.35 223.682 1782 227.821Z" fill="white"/>
<path d="M5.20117 283.256V11.656H122.778C147.095 11.656 168.049 15.6653 185.64 23.684C203.232 31.444 216.813 42.696 226.385 57.44C235.956 72.184 240.742 89.7733 240.742 110.208C240.742 130.384 235.956 147.844 226.385 162.588C216.813 177.332 203.232 188.713 185.64 196.732C168.049 204.492 147.095 208.372 122.778 208.372H40.1249L68.0638 180.048V283.256H5.20117ZM68.0638 187.032L40.1249 157.156H119.285C138.687 157.156 153.174 153.017 162.746 144.74C172.318 136.463 177.103 124.952 177.103 110.208C177.103 95.2053 172.318 83.5653 162.746 75.288C153.174 67.0107 138.687 62.872 119.285 62.872H40.1249L68.0638 32.996V187.032ZM508.654 287.912C487.182 287.912 467.263 284.42 448.895 277.436C430.787 270.452 415.006 260.623 401.554 247.948C388.361 235.273 378.013 220.4 370.511 203.328C363.268 186.256 359.646 167.632 359.646 147.456C359.646 127.28 363.268 108.656 370.511 91.584C378.013 74.512 388.49 59.6387 401.942 46.964C415.394 34.2893 431.175 24.46 449.283 17.476C467.392 10.492 487.053 7 508.266 7C529.737 7 549.398 10.492 567.248 17.476C585.356 24.46 601.007 34.2893 614.201 46.964C627.653 59.6387 638.13 74.512 645.632 91.584C653.134 108.397 656.885 127.021 656.885 147.456C656.885 167.632 653.134 186.385 645.632 203.716C638.13 220.788 627.653 235.661 614.201 248.336C601.007 260.752 585.356 270.452 567.248 277.436C549.398 284.42 529.866 287.912 508.654 287.912ZM508.266 234.368C520.424 234.368 531.548 232.299 541.637 228.16C551.985 224.021 561.039 218.072 568.8 210.312C576.561 202.552 582.511 193.369 586.65 182.764C591.048 172.159 593.246 160.389 593.246 147.456C593.246 134.523 591.048 122.753 586.65 112.148C582.511 101.543 576.561 92.36 568.8 84.6C561.298 76.84 552.373 70.8907 542.025 66.752C531.677 62.6133 520.424 60.544 508.266 60.544C496.107 60.544 484.854 62.6133 474.506 66.752C464.417 70.8907 455.492 76.84 447.731 84.6C439.97 92.36 433.891 101.543 429.493 112.148C425.354 122.753 423.285 134.523 423.285 147.456C423.285 160.131 425.354 171.9 429.493 182.764C433.891 193.369 439.841 202.552 447.343 210.312C455.104 218.072 464.158 224.021 474.506 228.16C484.854 232.299 496.107 234.368 508.266 234.368ZM791.438 283.256V11.656H909.018C933.335 11.656 954.289 15.6653 971.881 23.684C989.472 31.444 1003.05 42.696 1012.62 57.44C1022.2 72.184 1026.98 89.7733 1026.98 110.208C1026.98 130.384 1022.2 147.844 1012.62 162.588C1003.05 177.332 989.472 188.713 971.881 196.732C954.289 204.492 933.335 208.372 909.018 208.372H826.365L854.304 180.048V283.256H791.438ZM854.304 187.032L826.365 157.156H905.526C924.928 157.156 939.414 153.017 948.986 144.74C958.558 136.463 963.344 124.952 963.344 110.208C963.344 95.2053 958.558 83.5653 948.986 75.288C939.414 67.0107 924.928 62.872 905.526 62.872H826.365L854.304 32.996V187.032ZM1159.17 283.256V11.656H1211.16L1326.8 203.328H1299.25L1412.95 11.656H1464.55L1465.33 283.256H1406.35L1405.96 102.06H1416.83L1326.02 254.544H1297.7L1204.96 102.06H1218.15V283.256H1159.17ZM2104.58 283.256L1987.39 11.656H2055.3L2157.74 252.216H2117.77L2221.77 11.656H2284.24L2166.67 283.256H2104.58ZM2394.23 283.256V11.656H2457.09V283.256H2394.23ZM2666.68 121.072H2797.45V169.96H2666.68V121.072ZM2671.34 232.816H2819.18V283.256H2608.86V11.656H2814.14V62.096H2671.34V232.816ZM3045.76 287.912C3024.03 287.912 3003.2 285.067 2983.28 279.376C2963.36 273.427 2947.32 265.796 2935.17 256.484L2956.51 209.148C2968.15 217.425 2981.86 224.28 2997.64 229.712C3013.68 234.885 3029.85 237.472 3046.14 237.472C3058.56 237.472 3068.52 236.308 3076.02 233.98C3083.78 231.393 3089.48 227.901 3093.1 223.504C3096.72 219.107 3098.53 214.063 3098.53 208.372C3098.53 201.129 3095.68 195.439 3089.99 191.3C3084.3 186.903 3076.8 183.411 3067.49 180.824C3058.17 177.979 3047.83 175.392 3036.44 173.064C3025.32 170.477 3014.07 167.373 3002.68 163.752C2991.56 160.131 2981.34 155.475 2972.03 149.784C2962.72 144.093 2955.08 136.592 2949.13 127.28C2943.44 117.968 2940.6 106.069 2940.6 91.584C2940.6 76.064 2944.74 61.9667 2953.01 49.292C2961.55 36.3587 2974.23 26.1413 2991.04 18.64C3008.12 10.88 3029.46 7 3055.07 7C3072.14 7 3088.96 9.06934 3105.51 13.208C3122.07 17.088 3136.69 23.0373 3149.36 31.056L3129.96 78.78C3117.29 71.5373 3104.61 66.2347 3091.93 62.872C3079.26 59.2507 3066.84 57.44 3054.68 57.44C3042.52 57.44 3032.56 58.8627 3024.8 61.708C3017.04 64.5533 3011.48 68.304 3008.12 72.96C3004.75 77.3573 3003.07 82.5307 3003.07 88.48C3003.07 95.464 3005.92 101.155 3011.61 105.552C3017.3 109.691 3024.8 113.053 3034.12 115.64C3043.43 118.227 3053.65 120.813 3064.77 123.4C3076.15 125.987 3087.41 128.961 3098.53 132.324C3109.91 135.687 3120.26 140.213 3129.57 145.904C3138.89 151.595 3146.39 159.096 3152.08 168.408C3158.03 177.72 3161 189.489 3161 203.716C3161 218.977 3156.74 232.945 3148.2 245.62C3139.66 258.295 3126.86 268.512 3109.78 276.272C3092.97 284.032 3071.63 287.912 3045.76 287.912Z" fill="white"/>
</svg>
